<svg class="bi" width="1em" height="1em" fill="currentColor" version="1.1" viewBox="0 0 16 16" xmlns="http://www.w3.org/2000/svg">
  <path d="m8 15a7 7 0 1 0 0-14 7 7 0 0 0 0 14zm0 1a8 8 0 1 0 0-16 8 8 0 0 0 0 16z" fill-rule="evenodd"/>
  <path d="m10 3.2305c0.33676-0.011227 0.55262 0.33454 0.5 0.64347-0.0046 1.1165 0.0094 2.2335-0.0073 3.3497-0.06751 1.2179-1.1448 2.2682-2.3641 2.3044-1.1404 0.00749-2.2811 0.00116-3.4216 0.00325 0.72843 0.73111 1.4624 1.457 2.1873 2.1914 0.37116 0.39289-0.22317 1.0584-0.65696 0.73716-0.65359-0.61716-1.2757-1.2699-1.9169-1.901-0.41045-0.41951-0.84029-0.82191-1.2382-1.2524-0.18839-0.26367-0.029831-0.58942 0.19953-0.76383 0.97054-0.96784 1.9358-1.9412 2.9096-2.9056 0.39289-0.37116 1.0584 0.22317 0.73716 0.65696-0.61717 0.6536-1.2699 1.2757-1.9011 1.9169-0.10682 0.10682-0.21364 0.21364-0.32046 0.32046 1.1487-0.0049341 2.298 0.010016 3.4463-0.0077443 0.80108-0.060956 1.4265-0.84327 1.3466-1.6357 0.0017256-1.0695-0.0034482-2.1391 0.0025814-3.2084 0.020676-0.24867 0.24777-0.45386 0.49742-0.44888z"/>
</svg>
