<?xml version="1.0" encoding="utf-8"?>
<svg xmlns="http://www.w3.org/2000/svg" xmlns:xlink="http://www.w3.org/1999/xlink">
  <symbol xmlns="http://www.w3.org/2000/svg" viewBox="0 0 16 16" class="bi bi-arrow-clockwise" fill="currentColor" id="arrow-clockwise">
    <path fill-rule="evenodd" d="M8 3a5 5 0 104.546 2.914.5.5 0 01.908-.417A6 6 0 118 2v1z"/>
    <path d="M8 4.466V.534a.25.25 0 01.41-.192l2.36 1.966c.12.1.12.284 0 .384L8.41 4.658A.25.25 0 018 4.466z"/>
  </symbol>
  <symbol xmlns="http://www.w3.org/2000/svg" viewBox="0 0 16 16" class="bi bi-arrow-counterclockwise" fill="currentColor" id="arrow-counterclockwise">
    <path fill-rule="evenodd" d="M8 3a5 5 0 11-4.546 2.914.5.5 0 00-.908-.417A6 6 0 108 2v1z"/>
    <path d="M8 4.466V.534a.25.25 0 00-.41-.192L5.23 2.308a.25.25 0 000 .384l2.36 1.966A.25.25 0 008 4.466z"/>
  </symbol>
  <symbol xmlns="http://www.w3.org/2000/svg" viewBox="0 0 16 16" class="bi bi-download" fill="currentColor" id="download">
    <path fill-rule="evenodd" d="M.5 9.9a.5.5 0 01.5.5v2.5a1 1 0 001 1h12a1 1 0 001-1v-2.5a.5.5 0 011 0v2.5a2 2 0 01-2 2H2a2 2 0 01-2-2v-2.5a.5.5 0 01.5-.5z"/>
    <path fill-rule="evenodd" d="M7.646 11.854a.5.5 0 00.708 0l3-3a.5.5 0 00-.708-.708L8.5 10.293V1.5a.5.5 0 00-1 0v8.793L5.354 8.146a.5.5 0 10-.708.708l3 3z"/>
  </symbol>
  <symbol xmlns="http://www.w3.org/2000/svg" viewBox="0 0 16 16" class="bi bi-file" fill="currentColor" id="file">
    <path fill-rule="evenodd" d="M4 0h8a2 2 0 012 2v12a2 2 0 01-2 2H4a2 2 0 01-2-2V2a2 2 0 012-2zm0 1a1 1 0 00-1 1v12a1 1 0 001 1h8a1 1 0 001-1V2a1 1 0 00-1-1H4z"/>
  </symbol>
  <symbol xmlns="http://www.w3.org/2000/svg" viewBox="0 0 16 16" class="bi bi-trash" fill="currentColor" id="trash">
    <path d="M5.5 5.5A.5.5 0 016 6v6a.5.5 0 01-1 0V6a.5.5 0 01.5-.5zm2.5 0a.5.5 0 01.5.5v6a.5.5 0 01-1 0V6a.5.5 0 01.5-.5zm3 .5a.5.5 0 00-1 0v6a.5.5 0 001 0V6z"/>
    <path fill-rule="evenodd" d="M14.5 3a1 1 0 01-1 1H13v9a2 2 0 01-2 2H5a2 2 0 01-2-2V4h-.5a1 1 0 01-1-1V2a1 1 0 011-1H6a1 1 0 011-1h2a1 1 0 011 1h3.5a1 1 0 011 1v1zM4.118 4L4 4.059V13a1 1 0 001 1h6a1 1 0 001-1V4.059L11.882 4H4.118zM2.5 3V2h11v1h-11z"/>
  </symbol>
  <symbol xmlns="http://www.w3.org/2000/svg" viewBox="0 0 16 16" class="bi bi-upload" fill="currentColor" id="upload">
    <path fill-rule="evenodd" d="M.5 9.9a.5.5 0 01.5.5v2.5a1 1 0 001 1h12a1 1 0 001-1v-2.5a.5.5 0 011 0v2.5a2 2 0 01-2 2H2a2 2 0 01-2-2v-2.5a.5.5 0 01.5-.5z"/>
    <path fill-rule="evenodd" d="M7.646 1.146a.5.5 0 01.708 0l3 3a.5.5 0 01-.708.708L8.5 2.707V11.5a.5.5 0 01-1 0V2.707L5.354 4.854a.5.5 0 11-.708-.708l3-3z"/>
  </symbol>
</svg>