<?xml version="1.0" encoding="utf-8"?>
<svg xmlns="http://www.w3.org/2000/svg" xmlns:xlink="http://www.w3.org/1999/xlink">
  <symbol xmlns="http://www.w3.org/2000/svg" viewBox="0 0 16 16" class="bi bi-arrow-clockwise" fill="currentColor" id="arrow-clockwise">
    <g transform="rotate(90 8 8)">
      <path fill-rule="evenodd" d="M8 3a5 5 0 104.546 2.914.5.5 0 01.908-.417A6 6 0 118 2v1z"/>
      <path d="M8 4.466V.534a.25.25 0 01.41-.192l2.36 1.966c.12.1.12.284 0 .384L8.41 4.658A.25.25 0 018 4.466z"/>
    </g>
  </symbol>
  <symbol xmlns="http://www.w3.org/2000/svg" viewBox="0 0 16 16" class="bi bi-arrow-counterclockwise" fill="currentColor" id="arrow-counterclockwise">
    <g transform="rotate(-90 8 8)">
      <path fill-rule="evenodd" d="M8 3a5 5 0 11-4.546 2.914.5.5 0 00-.908-.417A6 6 0 108 2v1z"/>
      <path d="M8 4.466V.534a.25.25 0 00-.41-.192L5.23 2.308a.25.25 0 000 .384l2.36 1.966A.25.25 0 008 4.466z"/>
    </g>
  </symbol>
  <symbol xmlns="http://www.w3.org/2000/svg" viewBox="0 0 16 16" class="bi bi-box-seam" fill="currentColor" id="box-seam">
    <path fill-rule="evenodd" d="M8.186 1.113a.5.5 0 00-.372 0L1.846 3.5l2.404.961L10.404 2l-2.218-.887zm3.564 1.426L5.596 5 8 5.961 14.154 3.5l-2.404-.961zm3.25 1.7l-6.5 2.6v7.922l6.5-2.6V4.24zM7.5 14.762V6.838L1 4.239v7.923l6.5 2.6zM7.443.184a1.5 1.5 0 011.114 0l7.129 2.852A.5.5 0 0116 3.5v8.662a1 1 0 01-.629.928l-7.185 2.874a.5.5 0 01-.372 0L.63 13.09a1 1 0 01-.63-.928V3.5a.5.5 0 01.314-.464L7.443.184z"/>
  </symbol>
  <symbol xmlns="http://www.w3.org/2000/svg" viewBox="0 0 16 16" class="bi bi-check-circle-fill" fill="currentColor" id="check-circle-fill">
    <path fill-rule="evenodd" d="M16 8A8 8 0 110 8a8 8 0 0116 0zm-3.97-3.03a.75.75 0 00-1.08.022L7.477 9.417 5.384 7.323a.75.75 0 00-1.06 1.06L6.97 11.03a.75.75 0 001.079-.02l3.992-4.99a.75.75 0 00-.01-1.05z"/>
  </symbol>
  <symbol xmlns="http://www.w3.org/2000/svg" viewBox="0 0 16 16" class="bi bi-chevron-bar-contract" fill="currentColor" id="chevron-bar-contract">
    <path fill-rule="evenodd" d="M3.646 14.854a.5.5 0 00.708 0L8 11.207l3.646 3.647a.5.5 0 00.708-.708l-4-4a.5.5 0 00-.708 0l-4 4a.5.5 0 000 .708zm0-13.708a.5.5 0 01.708 0L8 4.793l3.646-3.647a.5.5 0 01.708.708l-4 4a.5.5 0 01-.708 0l-4-4a.5.5 0 010-.708zM1 8a.5.5 0 01.5-.5h13a.5.5 0 010 1h-13A.5.5 0 011 8z"/>
  </symbol>
  <symbol xmlns="http://www.w3.org/2000/svg" viewBox="0 0 16 16" class="bi bi-chevron-down" fill="currentColor" id="chevron-down">
    <path fill-rule="evenodd" d="M1.646 4.646a.5.5 0 01.708 0L8 10.293l5.646-5.647a.5.5 0 01.708.708l-6 6a.5.5 0 01-.708 0l-6-6a.5.5 0 010-.708z"/>
  </symbol>
  <symbol xmlns="http://www.w3.org/2000/svg" viewBox="0 0 16 16" class="bi bi-chevron-up" fill="currentColor" id="chevron-up">
    <path fill-rule="evenodd" d="M7.646 4.646a.5.5 0 01.708 0l6 6a.5.5 0 01-.708.708L8 5.707l-5.646 5.647a.5.5 0 01-.708-.708l6-6z"/>
  </symbol>
  <symbol xmlns="http://www.w3.org/2000/svg" viewBox="0 0 16 16" class="bi bi-circle" fill="currentColor" id="circle">
    <path fill-rule="evenodd" d="M8 15A7 7 0 108 1a7 7 0 000 14zm0 1A8 8 0 108 0a8 8 0 000 16z"/>
  </symbol>
  <symbol xmlns="http://www.w3.org/2000/svg" viewBox="0 0 16 16" class="bi bi-download" fill="currentColor" id="download">
    <path fill-rule="evenodd" d="M.5 9.9a.5.5 0 01.5.5v2.5a1 1 0 001 1h12a1 1 0 001-1v-2.5a.5.5 0 011 0v2.5a2 2 0 01-2 2H2a2 2 0 01-2-2v-2.5a.5.5 0 01.5-.5z"/>
    <path fill-rule="evenodd" d="M7.646 11.854a.5.5 0 00.708 0l3-3a.5.5 0 00-.708-.708L8.5 10.293V1.5a.5.5 0 00-1 0v8.793L5.354 8.146a.5.5 0 10-.708.708l3 3z"/>
  </symbol>
  <symbol xmlns="http://www.w3.org/2000/svg" viewBox="0 0 16 16" class="bi bi-file" fill="currentColor" id="file">
    <path fill-rule="evenodd" d="M4 0h8a2 2 0 012 2v12a2 2 0 01-2 2H4a2 2 0 01-2-2V2a2 2 0 012-2zm0 1a1 1 0 00-1 1v12a1 1 0 001 1h8a1 1 0 001-1V2a1 1 0 00-1-1H4z"/>
  </symbol>
  <symbol xmlns="http://www.w3.org/2000/svg" viewBox="0 0 16 16" class="bi bi-hexagon" fill="currentColor" id="hexagon">
    <path fill-rule="evenodd" d="M14 4.577L8 1 2 4.577v6.846L8 15l6-3.577V4.577zM8.5.134a1 1 0 00-1 0l-6 3.577a1 1 0 00-.5.866v6.846a1 1 0 00.5.866l6 3.577a1 1 0 001 0l6-3.577a1 1 0 00.5-.866V4.577a1 1 0 00-.5-.866L8.5.134z"/>
  </symbol>
  <symbol xmlns="http://www.w3.org/2000/svg" viewBox="0 0 16 16" class="bi bi-image" fill="currentColor" id="image">
    <path fill-rule="evenodd" d="M14.002 2h-12a1 1 0 00-1 1v9l2.646-2.354a.5.5 0 01.63-.062l2.66 1.773 3.71-3.71a.5.5 0 01.577-.094L15.002 9.5V3a1 1 0 00-1-1zm-12-1a2 2 0 00-2 2v10a2 2 0 002 2h12a2 2 0 002-2V3a2 2 0 00-2-2h-12zm4 4.5a1.5 1.5 0 11-3 0 1.5 1.5 0 013 0z"/>
  </symbol>
  <symbol xmlns="http://www.w3.org/2000/svg" viewBox="0 0 16 16" class="bi bi-info-circle" fill="currentColor" id="info-circle">
    <path fill-rule="evenodd" d="M8 15A7 7 0 108 1a7 7 0 000 14zm0 1A8 8 0 108 0a8 8 0 000 16z"/>
    <path d="M8.93 6.588l-2.29.287-.082.38.45.083c.294.07.352.176.288.469l-.738 3.468c-.194.897.105 1.319.808 1.319.545 0 1.178-.252 1.465-.598l.088-.416c-.2.176-.492.246-.686.246-.275 0-.375-.193-.304-.533L8.93 6.588z"/>
    <circle cx="8" cy="4.5" r="1"/>
  </symbol>
  <symbol xmlns="http://www.w3.org/2000/svg" viewBox="0 0 16 16" class="bi bi-layers" fill="currentColor" id="layers">
    <path fill-rule="evenodd" d="M3.188 8L.264 9.559a.5.5 0 000 .882l7.5 4a.5.5 0 00.47 0l7.5-4a.5.5 0 000-.882L12.813 8l-1.063.567L14.438 10 8 13.433 1.562 10 4.25 8.567 3.187 8z"/>
    <path fill-rule="evenodd" d="M7.765 1.559a.5.5 0 01.47 0l7.5 4a.5.5 0 010 .882l-7.5 4a.5.5 0 01-.47 0l-7.5-4a.5.5 0 010-.882l7.5-4zM1.563 6L8 9.433 14.438 6 8 2.567 1.562 6z"/>
  </symbol>
  <symbol xmlns="http://www.w3.org/2000/svg" viewBox="0 0 16 16" class="bi bi-signpost" fill="currentColor" id="signpost">
    <path d="M7 1.414V4h2V1.414a1 1 0 00-2 0z"/>
    <path fill-rule="evenodd" d="M12.532 5H2v4h10.532l1.666-2-1.666-2zM2 4a1 1 0 00-1 1v4a1 1 0 001 1h10.532a1 1 0 00.768-.36l1.933-2.32a.5.5 0 000-.64L13.3 4.36a1 1 0 00-.768-.36H2z"/>
    <path d="M7 10h2v6H7v-6z"/>
  </symbol>
  <symbol xmlns="http://www.w3.org/2000/svg" viewBox="0 0 16 16" class="bi bi-sliders" fill="currentColor" id="sliders">
    <path fill-rule="evenodd" d="M11.5 2a1.5 1.5 0 100 3 1.5 1.5 0 000-3zM9.05 3a2.5 2.5 0 014.9 0H16v1h-2.05a2.5 2.5 0 01-4.9 0H0V3h9.05zM4.5 7a1.5 1.5 0 100 3 1.5 1.5 0 000-3zM2.05 8a2.5 2.5 0 014.9 0H16v1H6.95a2.5 2.5 0 01-4.9 0H0V8h2.05zm9.45 4a1.5 1.5 0 100 3 1.5 1.5 0 000-3zm-2.45 1a2.5 2.5 0 014.9 0H16v1h-2.05a2.5 2.5 0 01-4.9 0H0v-1h9.05z"/>
  </symbol>
  <symbol xmlns="http://www.w3.org/2000/svg" viewBox="0 0 16 16" class="bi bi-speedometer2" fill="currentColor" id="speedometer2">
    <path d="M8 4a.5.5 0 01.5.5V6a.5.5 0 01-1 0V4.5A.5.5 0 018 4zM3.732 5.732a.5.5 0 01.707 0l.915.914a.5.5 0 11-.708.708l-.914-.915a.5.5 0 010-.707zM2 10a.5.5 0 01.5-.5h1.586a.5.5 0 010 1H2.5A.5.5 0 012 10zm9.5 0a.5.5 0 01.5-.5h1.5a.5.5 0 010 1H12a.5.5 0 01-.5-.5zm.754-4.246a.389.389 0 00-.527-.02L7.547 9.31a.91.91 0 101.302 1.258l3.434-4.297a.389.389 0 00-.029-.518z"/>
    <path fill-rule="evenodd" d="M0 10a8 8 0 1115.547 2.661c-.442 1.253-1.845 1.602-2.932 1.25C11.309 13.488 9.475 13 8 13c-1.474 0-3.31.488-4.615.911-1.087.352-2.49.003-2.932-1.25A7.988 7.988 0 010 10zm8-7a7 7 0 00-6.603 9.329c.203.575.923.876 1.68.63C4.397 12.533 6.358 12 8 12s3.604.532 4.923.96c.757.245 1.477-.056 1.68-.631A7 7 0 008 3z"/>
  </symbol>
  <symbol xmlns="http://www.w3.org/2000/svg" viewBox="0 0 16 16" class="bi bi-trash" fill="currentColor" id="trash">
    <path d="M5.5 5.5A.5.5 0 016 6v6a.5.5 0 01-1 0V6a.5.5 0 01.5-.5zm2.5 0a.5.5 0 01.5.5v6a.5.5 0 01-1 0V6a.5.5 0 01.5-.5zm3 .5a.5.5 0 00-1 0v6a.5.5 0 001 0V6z"/>
    <path fill-rule="evenodd" d="M14.5 3a1 1 0 01-1 1H13v9a2 2 0 01-2 2H5a2 2 0 01-2-2V4h-.5a1 1 0 01-1-1V2a1 1 0 011-1H6a1 1 0 011-1h2a1 1 0 011 1h3.5a1 1 0 011 1v1zM4.118 4L4 4.059V13a1 1 0 001 1h6a1 1 0 001-1V4.059L11.882 4H4.118zM2.5 3V2h11v1h-11z"/>
  </symbol>
  <symbol xmlns="http://www.w3.org/2000/svg" viewBox="0 0 16 16" class="bi bi-upload" fill="currentColor" id="upload">
    <path fill-rule="evenodd" d="M.5 9.9a.5.5 0 01.5.5v2.5a1 1 0 001 1h12a1 1 0 001-1v-2.5a.5.5 0 011 0v2.5a2 2 0 01-2 2H2a2 2 0 01-2-2v-2.5a.5.5 0 01.5-.5z"/>
    <path fill-rule="evenodd" d="M7.646 1.146a.5.5 0 01.708 0l3 3a.5.5 0 01-.708.708L8.5 2.707V11.5a.5.5 0 01-1 0V2.707L5.354 4.854a.5.5 0 11-.708-.708l3-3z"/>
  </symbol>
  <symbol xmlns="http://www.w3.org/2000/svg" viewBox="0 0 16 16" class="bi bi-zoom-in" fill="currentColor" id="zoom-in">
    <path fill-rule="evenodd" d="M6.5 12a5.5 5.5 0 100-11 5.5 5.5 0 000 11zM13 6.5a6.5 6.5 0 11-13 0 6.5 6.5 0 0113 0z"/>
    <path d="M10.344 11.742c.03.04.062.078.098.115l3.85 3.85a1 1 0 001.415-1.414l-3.85-3.85a1.007 1.007 0 00-.115-.1 6.538 6.538 0 01-1.398 1.4z"/>
    <path fill-rule="evenodd" d="M6.5 3a.5.5 0 01.5.5V6h2.5a.5.5 0 010 1H7v2.5a.5.5 0 01-1 0V7H3.5a.5.5 0 010-1H6V3.5a.5.5 0 01.5-.5z"/>
  </symbol>
</svg>
