<svg class="bi" width="1em" height="1em" fill="currentColor" version="1.1" viewBox="0 0 16 16" xmlns="http://www.w3.org/2000/svg">
  <path d="m8 15a7 7 0 1 0 0-14 7 7 0 0 0 0 14zm0 1a8 8 0 1 0 0-16 8 8 0 0 0 0 16z" fill-rule="evenodd"/>
  <path d="m6 3.2305c-0.27614 0-0.5 0.22386-0.5 0.5v3.3008c0 1.3807 1.1193 2.5 2.5 2.5h3.293l-2.1465 2.1465c-0.472 0.472 0.23503 1.179 0.70703 0.70703l3-3c0.19586-0.19536 0.19586-0.51167 0-0.70703l-3-3c-0.472-0.472-1.179 0.23503-0.70703 0.70703l2.1465 2.1465h-3.293c-0.82843 0-1.5-0.67157-1.5-1.5v-3.3008c0-0.27614-0.22386-0.5-0.5-0.5z"/>
</svg>
